<svg width="20" height="20" viewBox="0 0 20 20" fill="none" xmlns="http://www.w3.org/2000/svg">
<g clip-path="url(#clip0_380_794)">
<path d="M11.6551 3.33075C11.9556 3.33075 12.2504 3.41201 12.5084 3.56593C12.7664 3.71985 12.978 3.9407 13.1207 4.20507L13.5253 4.95449C13.668 5.21886 13.8796 5.4397 14.1376 5.59363C14.3956 5.74755 14.6904 5.82881 14.9909 5.82881H16.6537C17.0954 5.82881 17.519 6.00426 17.8313 6.31658C18.1437 6.6289 18.3191 7.05249 18.3191 7.49418V14.9883C18.3191 15.43 18.1437 15.8536 17.8313 16.1659C17.519 16.4783 17.0954 16.6537 16.6537 16.6537H3.33078C2.88909 16.6537 2.4655 16.4783 2.15318 16.1659C1.84086 15.8536 1.66541 15.43 1.66541 14.9883V7.49418C1.66541 7.05249 1.84086 6.6289 2.15318 6.31658C2.4655 6.00426 2.88909 5.82881 3.33078 5.82881H4.99365C5.29377 5.82882 5.58831 5.74774 5.84614 5.59413C6.10396 5.44052 6.31549 5.22009 6.45834 4.95615L6.86553 4.2034C7.00838 3.93947 7.21991 3.71904 7.47773 3.56543C7.73556 3.41182 8.0301 3.33073 8.33022 3.33075H11.6551Z" stroke="#364153" stroke-width="1.66537" stroke-linecap="round" stroke-linejoin="round"/>
<path d="M9.9922 13.323C11.3718 13.323 12.4903 12.2045 12.4903 10.8249C12.4903 9.44526 11.3718 8.32684 9.9922 8.32684C8.61256 8.32684 7.49414 9.44526 7.49414 10.8249C7.49414 12.2045 8.61256 13.323 9.9922 13.323Z" stroke="#364153" stroke-width="1.66537" stroke-linecap="round" stroke-linejoin="round"/>
</g>
<defs>
<clipPath id="clip0_380_794">
<rect width="19.9844" height="19.9844" fill="white"/>
</clipPath>
</defs>
</svg>
