<svg width="40" height="40" viewBox="0 0 40 40" fill="none" xmlns="http://www.w3.org/2000/svg">
<path d="M0 10C0 4.47715 4.47715 0 10 0H29.9927C35.5155 0 39.9927 4.47715 39.9927 10V29.9927C39.9927 35.5155 35.5155 39.9927 29.9927 39.9927H10C4.47715 39.9927 0 35.5155 0 29.9927V10Z" fill="url(#paint0_linear_106_390)"/>
<g clip-path="url(#clip0_106_390)">
<path d="M12.4908 23.614C12.6133 23.923 12.6406 24.2617 12.5691 24.5863L11.6818 27.3275C11.6532 27.4665 11.6606 27.6105 11.7033 27.7459C11.7459 27.8812 11.8225 28.0034 11.9256 28.1009C12.0288 28.1984 12.1551 28.2679 12.2927 28.3029C12.4302 28.3378 12.5744 28.337 12.7116 28.3006L15.5552 27.4691C15.8616 27.4084 16.1789 27.4349 16.4709 27.5458C18.2501 28.3766 20.2655 28.5524 22.1617 28.0421C24.0578 27.5318 25.7128 26.3682 26.8346 24.7566C27.9564 23.145 28.473 21.189 28.2932 19.2336C28.1133 17.2782 27.2487 15.4492 25.8517 14.0692C24.4548 12.6893 22.6154 11.847 20.658 11.6911C18.7006 11.5352 16.751 12.0756 15.1532 13.217C13.5554 14.3584 12.4121 16.0275 11.925 17.9297C11.4379 19.832 11.6383 21.8451 12.4908 23.614Z" stroke="white" stroke-width="1.66636" stroke-linecap="round" stroke-linejoin="round"/>
</g>
<defs>
<linearGradient id="paint0_linear_106_390" x1="19.9963" y1="0" x2="19.9963" y2="39.9927" gradientUnits="userSpaceOnUse">
<stop stop-color="#AD033B"/>
<stop offset="1"/>
</linearGradient>
<clipPath id="clip0_106_390">
<rect width="19.9963" height="19.9963" fill="white" transform="translate(9.99805 9.99817)"/>
</clipPath>
</defs>
</svg>
