<svg width="20" height="20" viewBox="0 0 20 20" fill="none" xmlns="http://www.w3.org/2000/svg">
<g clip-path="url(#clip0_106_689)">
<path d="M2.49288 13.6158C2.61539 13.9249 2.64267 14.2635 2.5712 14.5882L1.68387 17.3293C1.65527 17.4683 1.66267 17.6124 1.70534 17.7477C1.74802 17.8831 1.82456 18.0053 1.92771 18.1028C2.03086 18.2002 2.1572 18.2697 2.29475 18.3047C2.4323 18.3397 2.5765 18.3389 2.71368 18.3025L5.55732 17.471C5.8637 17.4102 6.18098 17.4368 6.47299 17.5476C8.25215 18.3785 10.2676 18.5543 12.1637 18.044C14.0599 17.5337 15.7149 16.3701 16.8367 14.7584C17.9585 13.1468 18.4751 11.1908 18.2952 9.23544C18.1154 7.28008 17.2508 5.45107 15.8538 4.07109C14.4569 2.69112 12.6174 1.84887 10.66 1.69295C8.70263 1.53702 6.75305 2.07745 5.15526 3.21887C3.55748 4.36029 2.41417 6.02936 1.92707 7.93159C1.43996 9.83382 1.64035 11.847 2.49288 13.6158Z" stroke="#AD033B" stroke-width="1.66636" stroke-linecap="round" stroke-linejoin="round"/>
</g>
<defs>
<clipPath id="clip0_106_689">
<rect width="19.9963" height="19.9963" fill="white"/>
</clipPath>
</defs>
</svg>
