<svg width="14" height="14" viewBox="0 0 14 14" fill="none" xmlns="http://www.w3.org/2000/svg">
<g clip-path="url(#clip0_73_2133)">
<path d="M6.40806 12.6591C6.58518 12.7613 6.7861 12.8152 6.99062 12.8152C7.19514 12.8152 7.39606 12.7613 7.57318 12.6591L11.6511 10.3288C11.8281 10.2267 11.975 10.0798 12.0773 9.90289C12.1795 9.72599 12.2335 9.52532 12.2337 9.321V4.6605C12.2335 4.45618 12.1795 4.25551 12.0773 4.07862C11.975 3.90172 11.8281 3.75483 11.6511 3.65267L7.57318 1.32242C7.39606 1.22016 7.19514 1.16632 6.99062 1.16632C6.7861 1.16632 6.58518 1.22016 6.40806 1.32242L2.33012 3.65267C2.15318 3.75483 2.0062 3.90172 1.90395 4.07862C1.8017 4.25551 1.74777 4.45618 1.74756 4.6605V9.321C1.74777 9.52532 1.8017 9.72599 1.90395 9.90289C2.0062 10.0798 2.15318 10.2267 2.33012 10.3288L6.40806 12.6591Z" stroke="#AD033B" stroke-width="1.16513" stroke-linecap="round" stroke-linejoin="round"/>
<path d="M6.99072 12.8164V6.99075" stroke="#AD033B" stroke-width="1.16513" stroke-linecap="round" stroke-linejoin="round"/>
<path d="M1.9165 4.07794L6.99062 6.99075L12.0647 4.07794" stroke="#AD033B" stroke-width="1.16513" stroke-linecap="round" stroke-linejoin="round"/>
<path d="M4.36914 2.48755L9.6122 5.48775" stroke="#AD033B" stroke-width="1.16513" stroke-linecap="round" stroke-linejoin="round"/>
</g>
<defs>
<clipPath id="clip0_73_2133">
<rect width="13.9815" height="13.9815" fill="white"/>
</clipPath>
</defs>
</svg>
