<svg width="16" height="16" viewBox="0 0 16 16" fill="none" xmlns="http://www.w3.org/2000/svg">
<g clip-path="url(#clip0_411_240)">
<path d="M14.1083 4.53885C14.4606 4.18666 14.6585 3.70895 14.6586 3.21081C14.6586 2.71268 14.4608 2.23492 14.1086 1.88264C13.7564 1.53036 13.2787 1.33241 12.7806 1.33235C12.2824 1.33229 11.8047 1.53011 11.4524 1.88231L2.55993 10.7768C2.40522 10.931 2.29082 11.1209 2.22678 11.3298L1.34659 14.2296C1.32937 14.2872 1.32807 14.3484 1.34283 14.4067C1.35758 14.465 1.38785 14.5182 1.43041 14.5607C1.47297 14.6032 1.52624 14.6334 1.58457 14.648C1.64289 14.6627 1.7041 14.6613 1.7617 14.644L4.66211 13.7645C4.87078 13.701 5.06068 13.5873 5.21514 13.4333L14.1083 4.53885Z" stroke="#99A1AF" stroke-width="1.3326" stroke-linecap="round" stroke-linejoin="round"/>
<path d="M9.99454 3.33151L12.6597 5.99672" stroke="#99A1AF" stroke-width="1.3326" stroke-linecap="round" stroke-linejoin="round"/>
</g>
<defs>
<clipPath id="clip0_411_240">
<rect width="15.9913" height="15.9913" fill="white"/>
</clipPath>
</defs>
</svg>
