<svg width="20" height="20" viewBox="0 0 20 20" fill="none" xmlns="http://www.w3.org/2000/svg">
<path d="M1.71803 10.2881C1.6486 10.101 1.6486 9.89528 1.71803 9.70822C2.39433 8.0684 3.54229 6.66631 5.0164 5.6797C6.49051 4.6931 8.22438 4.16641 9.99818 4.16641C11.772 4.16641 13.5059 4.6931 14.98 5.6797C16.4541 6.66631 17.602 8.0684 18.2783 9.70822C18.3478 9.89528 18.3478 10.101 18.2783 10.2881C17.602 11.9279 16.4541 13.33 14.98 14.3166C13.5059 15.3032 11.772 15.8299 9.99818 15.8299C8.22438 15.8299 6.49051 15.3032 5.0164 14.3166C3.54229 13.33 2.39433 11.9279 1.71803 10.2881Z" stroke="#99A1AF" stroke-width="1.66636" stroke-linecap="round" stroke-linejoin="round"/>
<path d="M9.99814 12.4977C11.3786 12.4977 12.4977 11.3786 12.4977 9.99817C12.4977 8.61771 11.3786 7.49863 9.99814 7.49863C8.61768 7.49863 7.4986 8.61771 7.4986 9.99817C7.4986 11.3786 8.61768 12.4977 9.99814 12.4977Z" stroke="#99A1AF" stroke-width="1.66636" stroke-linecap="round" stroke-linejoin="round"/>
</svg>
