<svg width="16" height="16" viewBox="0 0 16 16" fill="none" xmlns="http://www.w3.org/2000/svg">
<g clip-path="url(#clip0_69_1355)">
<path d="M6.6638 13.3276C6.66374 13.4514 6.69819 13.5728 6.76328 13.6782C6.82837 13.7835 6.92153 13.8686 7.0323 13.924L8.36506 14.5904C8.46668 14.6411 8.5796 14.6651 8.69308 14.66C8.80657 14.6548 8.91685 14.6208 9.01347 14.561C9.11008 14.5012 9.18981 14.4178 9.24509 14.3185C9.30037 14.2193 9.32936 14.1076 9.32931 13.994V9.3293C9.32946 8.99903 9.45223 8.68058 9.67383 8.43569L14.4871 3.11199C14.5733 3.0164 14.6301 2.89787 14.6504 2.77073C14.6707 2.64358 14.6538 2.51327 14.6016 2.39555C14.5495 2.27783 14.4643 2.17774 14.3565 2.10739C14.2486 2.03704 14.1227 1.99944 13.994 1.99914H1.99915C1.87027 1.99918 1.74418 2.0366 1.63614 2.10685C1.52809 2.1771 1.44274 2.27717 1.39041 2.39494C1.33809 2.51271 1.32103 2.64313 1.34131 2.7704C1.3616 2.89766 1.41835 3.01632 1.50469 3.11199L6.31928 8.43569C6.54087 8.68058 6.66365 8.99903 6.6638 9.3293V13.3276Z" stroke="#99A1AF" stroke-width="1.33276" stroke-linecap="round" stroke-linejoin="round"/>
</g>
<defs>
<clipPath id="clip0_69_1355">
<rect width="15.9931" height="15.9931" fill="white"/>
</clipPath>
</defs>
</svg>
