<svg width="16" height="16" viewBox="0 0 16 16" fill="none" xmlns="http://www.w3.org/2000/svg">
<g clip-path="url(#clip0_39_3120)">
<path d="M15.0335 8.16317C15.0335 7.6434 14.9868 7.14361 14.9002 6.66382H7.99652V9.50259H11.9415C11.7682 10.4155 11.2485 11.1885 10.4688 11.7083V13.5542H12.8478C14.2338 12.2747 15.0335 10.3955 15.0335 8.16317Z" fill="#4285F4"/>
<path d="M7.99654 15.3267C9.97569 15.3267 11.635 14.6737 12.8478 13.5541L10.4688 11.7083C9.81576 12.1481 8.98278 12.4146 7.99654 12.4146C6.0907 12.4146 4.4714 11.1285 3.89165 9.39594H1.4527V11.2885C2.65884 13.6808 5.13111 15.3267 7.99654 15.3267Z" fill="#34A853"/>
<path d="M3.89166 9.38929C3.74505 8.94948 3.65842 8.48301 3.65842 7.99655C3.65842 7.5101 3.74505 7.04363 3.89166 6.60382V4.7113H1.45271C0.952925 5.69754 0.666382 6.8104 0.666382 7.99655C0.666382 9.18271 0.952925 10.2956 1.45271 11.2818L3.35189 9.80244L3.89166 9.38929Z" fill="#FBBC05"/>
<path d="M7.99654 3.58512C9.07608 3.58512 10.0357 3.95829 10.802 4.67798L12.9011 2.57889C11.6283 1.39274 9.97569 0.666382 7.99654 0.666382C5.13111 0.666382 2.65884 2.31234 1.4527 4.7113L3.89165 6.60382C4.4714 4.87123 6.0907 3.58512 7.99654 3.58512Z" fill="#EA4335"/>
</g>
<defs>
<clipPath id="clip0_39_3120">
<rect width="15.9931" height="15.9931" fill="white"/>
</clipPath>
</defs>
</svg>
