<svg width="20" height="20" viewBox="0 0 20 20" fill="none" xmlns="http://www.w3.org/2000/svg">
<g clip-path="url(#clip0_106_682)">
<path d="M9.99816 18.33C14.5997 18.33 18.33 14.5997 18.33 9.99819C18.33 5.39666 14.5997 1.66638 9.99816 1.66638C5.39663 1.66638 1.66635 5.39666 1.66635 9.99819C1.66635 14.5997 5.39663 18.33 9.99816 18.33Z" stroke="#4a5568" stroke-width="1.66636" stroke-linecap="round" stroke-linejoin="round"/>
<path d="M7.57361 7.4987C7.76949 6.94186 8.15613 6.47231 8.66504 6.17322C9.17395 5.87413 9.77229 5.7648 10.3541 5.8646C10.9359 5.96439 11.4636 6.26687 11.8437 6.71845C12.2239 7.17004 12.4319 7.74159 12.4311 8.33188C12.4311 9.99825 9.93151 10.8314 9.93151 10.8314" stroke="#4a5568" stroke-width="1.66636" stroke-linecap="round" stroke-linejoin="round"/>
<path d="M9.99817 14.1641H10.0065" stroke="#4a5568" stroke-width="1.66636" stroke-linecap="round" stroke-linejoin="round"/>
</g>
<defs>
<clipPath id="clip0_106_682">
<rect width="19.9963" height="19.9963" fill="white"/>
</clipPath>
</defs>
</svg>
