<svg width="20" height="20" viewBox="0 0 20 20" fill="none" xmlns="http://www.w3.org/2000/svg">
<g clip-path="url(#clip0_106_674)">
<path d="M9.16499 18.105C9.41831 18.2513 9.70566 18.3283 9.99817 18.3283C10.2907 18.3283 10.578 18.2513 10.8313 18.105L16.6636 14.7723C16.9167 14.6262 17.1269 14.4161 17.2731 14.1631C17.4194 13.9101 17.4965 13.6231 17.4968 13.3309V6.66547C17.4965 6.37325 17.4194 6.08625 17.2731 5.83325C17.1269 5.58026 16.9167 5.37017 16.6636 5.22406L10.8313 1.89134C10.578 1.74509 10.2907 1.66809 9.99817 1.66809C9.70566 1.66809 9.41831 1.74509 9.16499 1.89134L3.33272 5.22406C3.07965 5.37017 2.86946 5.58026 2.72322 5.83325C2.57698 6.08625 2.49984 6.37325 2.49954 6.66547V13.3309C2.49984 13.6231 2.57698 13.9101 2.72322 14.1631C2.86946 14.4161 3.07965 14.6262 3.33272 14.7723L9.16499 18.105Z" stroke="#AD033B" stroke-width="1.66636" stroke-linecap="round" stroke-linejoin="round"/>
<path d="M9.99817 18.33V9.99817" stroke="#AD033B" stroke-width="1.66636" stroke-linecap="round" stroke-linejoin="round"/>
<path d="M2.74117 5.83228L9.99817 9.99818L17.2552 5.83228" stroke="#AD033B" stroke-width="1.66636" stroke-linecap="round" stroke-linejoin="round"/>
<path d="M6.24886 3.55774L13.7475 7.84862" stroke="#AD033B" stroke-width="1.66636" stroke-linecap="round" stroke-linejoin="round"/>
</g>
<defs>
<clipPath id="clip0_106_674">
<rect width="19.9963" height="19.9963" fill="white"/>
</clipPath>
</defs>
</svg>
