<svg width="12" height="12" viewBox="0 0 12 12" fill="none" xmlns="http://www.w3.org/2000/svg">
<g clip-path="url(#clip0_106_596)">
<path d="M9.99153 4.99576C9.99153 7.49014 7.22438 10.0879 6.29516 10.8903C6.2086 10.9554 6.10323 10.9906 5.99492 10.9906C5.88661 10.9906 5.78124 10.9554 5.69467 10.8903C4.76546 10.0879 1.99831 7.49014 1.99831 4.99576C1.99831 3.93579 2.41938 2.91924 3.16889 2.16973C3.9184 1.42022 4.93495 0.999146 5.99492 0.999146C7.05489 0.999146 8.07144 1.42022 8.82095 2.16973C9.57046 2.91924 9.99153 3.93579 9.99153 4.99576Z" stroke="#AD033B" stroke-width="0.999153" stroke-linecap="round" stroke-linejoin="round"/>
<path d="M5.99491 6.49447C6.82264 6.49447 7.49364 5.82346 7.49364 4.99574C7.49364 4.16801 6.82264 3.49701 5.99491 3.49701C5.16719 3.49701 4.49619 4.16801 4.49619 4.99574C4.49619 5.82346 5.16719 6.49447 5.99491 6.49447Z" stroke="#AD033B" stroke-width="0.999153" stroke-linecap="round" stroke-linejoin="round"/>
</g>
<defs>
<clipPath id="clip0_106_596">
<rect width="11.9898" height="11.9898" fill="white"/>
</clipPath>
</defs>
</svg>
