<svg width="20" height="20" viewBox="0 0 20 20" fill="none" xmlns="http://www.w3.org/2000/svg">
<g clip-path="url(#clip0_566_1769)">
<path d="M12.2404 5.24597C12.0878 5.40163 12.0024 5.6109 12.0024 5.82885C12.0024 6.04681 12.0878 6.25608 12.2404 6.41173L13.5727 7.74403C13.7284 7.8966 13.9376 7.98206 14.1556 7.98206C14.3735 7.98206 14.5828 7.8966 14.7385 7.74403L17.3248 5.15854C17.5912 4.89042 18.0434 4.97535 18.1433 5.34007C18.3949 6.25508 18.3807 7.22283 18.1023 8.13006C17.824 9.03729 17.293 9.84648 16.5715 10.4629C15.8501 11.0794 14.9679 11.4777 14.0284 11.6111C13.0888 11.7445 12.1307 11.6076 11.2662 11.2163L4.67963 17.8029C4.34836 18.134 3.89912 18.32 3.43072 18.3199C2.96232 18.3199 2.51314 18.1337 2.18199 17.8025C1.85083 17.4712 1.66484 17.0219 1.66492 16.5535C1.665 16.0851 1.85114 15.636 2.1824 15.3048L8.76894 8.71827C8.3777 7.85371 8.24078 6.89559 8.3742 5.95605C8.50762 5.0165 8.90586 4.13438 9.52233 3.41291C10.1388 2.69145 10.948 2.16047 11.8552 1.88211C12.7624 1.60376 13.7302 1.58954 14.6452 1.84112C15.0099 1.94105 15.0949 2.39236 14.8276 2.66049L12.2404 5.24597Z" stroke="#6A7282" stroke-width="1.66537" stroke-linecap="round" stroke-linejoin="round"/>
</g>
<defs>
<clipPath id="clip0_566_1769">
<rect width="19.9844" height="19.9844" fill="white"/>
</clipPath>
</defs>
</svg>
