<svg width="16" height="16" viewBox="0 0 16 16" fill="none" xmlns="http://www.w3.org/2000/svg">
<g clip-path="url(#clip0_421_756)">
<path d="M9.79463 4.19776C9.67254 4.32231 9.60416 4.48977 9.60416 4.66417C9.60416 4.83858 9.67254 5.00603 9.79463 5.13058L10.8607 6.19667C10.9853 6.31875 11.1527 6.38713 11.3271 6.38713C11.5015 6.38713 11.669 6.31875 11.7935 6.19667L13.8631 4.1278C14.0763 3.91325 14.4381 3.98121 14.518 4.27305C14.7194 5.00523 14.708 5.77961 14.4852 6.50556C14.2625 7.23151 13.8376 7.87902 13.2603 8.3723C12.683 8.86559 11.9772 9.18426 11.2253 9.29102C10.4735 9.39778 9.70687 9.28822 9.01505 8.97515L3.7446 14.2456C3.47953 14.5106 3.12005 14.6594 2.74524 14.6594C2.37044 14.6593 2.01101 14.5103 1.74603 14.2453C1.48104 13.9802 1.33221 13.6207 1.33228 13.2459C1.33234 12.8711 1.48129 12.5117 1.74636 12.2467L7.01681 6.97624C6.70374 6.28443 6.59418 5.51776 6.70094 4.76595C6.8077 4.01414 7.12637 3.30828 7.61966 2.73097C8.11294 2.15366 8.76045 1.72878 9.4864 1.50605C10.2124 1.28331 10.9867 1.27194 11.7189 1.47325C12.0107 1.55321 12.0787 1.91434 11.8648 2.12889L9.79463 4.19776Z" stroke="white" stroke-width="1.3326" stroke-linecap="round" stroke-linejoin="round"/>
</g>
<defs>
<clipPath id="clip0_421_756">
<rect width="15.9913" height="15.9913" fill="white"/>
</clipPath>
</defs>
</svg>
