<svg width="20" height="20" viewBox="0 0 20 20" fill="none" xmlns="http://www.w3.org/2000/svg">
<g clip-path="url(#clip0_540_532)">
<path d="M12.2405 5.24591C12.088 5.40157 12.0025 5.61084 12.0025 5.82879C12.0025 6.04675 12.088 6.25602 12.2405 6.41167L13.5728 7.74397C13.7285 7.89654 13.9378 7.982 14.1557 7.982C14.3737 7.982 14.5829 7.89654 14.7386 7.74397L17.3249 5.15848C17.5914 4.89036 18.0435 4.97529 18.1434 5.34001C18.395 6.25502 18.3808 7.22277 18.1024 8.13C17.8241 9.03723 17.2931 9.84642 16.5716 10.4629C15.8502 11.0794 14.9681 11.4776 14.0285 11.611C13.089 11.7444 12.1309 11.6075 11.2663 11.2163L4.67975 17.8028C4.34849 18.134 3.89924 18.32 3.43084 18.3199C2.96244 18.3198 2.51326 18.1337 2.18211 17.8024C1.85096 17.4711 1.66496 17.0219 1.66504 16.5535C1.66512 16.0851 1.85126 15.6359 2.18253 15.3048L8.76907 8.71821C8.37782 7.85364 8.2409 6.89553 8.37432 5.95599C8.50774 5.01644 8.90598 4.13432 9.52245 3.41285C10.1389 2.69138 10.9481 2.16041 11.8553 1.88205C12.7626 1.6037 13.7303 1.58948 14.6453 1.84106C15.01 1.94099 15.095 2.3923 14.8277 2.66043L12.2405 5.24591Z" stroke="#AD033B" stroke-width="1.66537" stroke-linecap="round" stroke-linejoin="round"/>
</g>
<defs>
<clipPath id="clip0_540_532">
<rect width="19.9844" height="19.9844" fill="white"/>
</clipPath>
</defs>
</svg>
